<?xml version="1.0" encoding="UTF-8" ?>
<!DOCTYPE svg PUBLIC "-//W3C//DTD SVG 1.1//EN" "http://www.w3.org/Graphics/SVG/1.1/DTD/svg11.dtd">
<svg width="733pt" height="586pt" viewBox="0 0 733 586" version="1.1" xmlns="http://www.w3.org/2000/svg">
<g id="#5cb7d2ff">
<path fill="#5cb7d2" opacity="1.00" d=" M 187.31 214.00 C 191.96 200.82 206.10 191.90 220.00 193.51 C 231.66 194.52 242.23 202.59 246.45 213.47 C 249.85 222.39 248.94 232.86 244.04 241.05 C 237.55 251.96 224.39 257.94 211.87 256.18 C 202.09 254.50 193.41 248.01 188.87 239.21 C 185.04 231.46 184.43 222.16 187.31 214.00 Z" />
<path fill="#5cb7d2" opacity="1.00" d=" M 141.94 210.43 C 155.23 205.94 169.67 205.10 183.46 207.40 C 181.95 210.59 180.95 213.98 179.72 217.27 C 170.28 217.60 160.39 216.17 151.14 219.14 C 126.54 224.78 105.63 243.96 97.80 267.94 C 97.04 269.89 96.77 272.11 95.38 273.77 C 92.71 271.74 89.36 271.29 86.11 271.13 C 87.94 257.11 96.14 244.79 105.09 234.20 C 115.27 223.54 127.81 214.87 141.94 210.43 Z" />
<path fill="#5cb7d2" opacity="1.00" d=" M 236.07 256.43 C 238.98 254.29 242.10 252.32 244.33 249.43 C 251.84 262.99 256.10 278.43 255.70 293.97 C 255.61 316.10 246.31 338.00 230.58 353.55 C 229.92 354.21 228.39 355.88 227.65 354.41 C 226.09 352.09 224.25 349.99 222.35 347.94 C 222.38 347.60 222.44 346.93 222.47 346.59 C 229.46 339.59 234.83 331.12 238.94 322.15 C 244.93 307.84 246.41 291.67 243.18 276.50 C 241.87 269.46 238.89 262.95 236.07 256.43 Z" />
<path fill="#5cb7d2" opacity="1.00" d=" M 89.12 313.26 C 91.20 312.24 93.63 311.76 95.31 310.06 C 97.28 315.82 98.71 321.84 101.71 327.19 C 111.25 345.26 128.02 359.66 147.83 365.15 C 156.20 367.62 164.97 368.54 173.68 368.36 C 173.49 372.04 175.08 375.59 174.55 379.27 C 168.63 379.37 162.73 378.81 156.84 378.31 C 141.90 375.89 127.31 370.07 115.47 360.53 C 100.40 348.99 89.52 332.08 85.48 313.52 C 86.69 313.43 87.90 313.34 89.12 313.26 Z" />
</g>
<g id="#27d1dcff">
<path fill="#27d1dc" opacity="1.00" d=" M 257.22 225.05 C 261.81 225.02 266.40 225.01 271.00 225.02 C 274.14 224.99 277.65 225.66 279.69 228.30 C 278.99 229.37 278.35 230.48 277.51 231.44 C 275.52 232.19 273.39 231.25 271.41 230.97 C 270.91 229.31 269.22 229.15 267.77 228.85 C 267.75 229.37 267.71 230.41 267.69 230.93 C 265.09 231.39 262.46 231.72 259.82 231.79 C 259.65 231.73 259.33 231.59 259.17 231.52 C 258.70 231.32 257.75 230.92 257.28 230.73 C 257.25 228.83 257.23 226.94 257.22 225.05 Z" />
</g>
<g id="#2acdddff">
<path fill="#2acddd" opacity="1.00" d=" M 281.82 226.14 C 285.75 225.95 289.68 226.01 293.61 226.04 C 293.62 227.81 293.62 229.58 293.62 231.36 C 293.15 231.67 292.20 232.29 291.72 232.60 C 291.76 233.27 291.84 234.60 291.88 235.27 C 290.62 233.79 289.37 232.31 288.13 230.82 C 287.41 231.83 286.69 232.84 285.98 233.86 C 285.43 233.53 284.34 232.87 283.80 232.54 C 283.42 232.32 282.67 231.87 282.30 231.65 C 282.03 229.82 281.85 227.98 281.82 226.14 Z" />
</g>
<g id="#2acddeff">
<path fill="#2acdde" opacity="1.00" d=" M 296.20 225.99 C 299.47 226.07 302.74 225.88 306.00 226.10 C 307.75 227.90 308.75 230.25 309.98 232.40 C 308.16 233.06 306.16 234.67 304.18 233.70 C 302.98 233.01 301.63 233.04 300.31 233.26 C 299.47 232.74 298.64 232.22 297.82 231.69 C 297.43 231.44 296.67 230.95 296.28 230.71 C 296.25 229.13 296.22 227.56 296.20 225.99 Z" />
</g>
<g id="#26cfdfff">
<path fill="#26cfdf" opacity="1.00" d=" M 311.12 226.01 C 313.85 226.01 316.58 226.02 319.32 226.05 C 319.19 228.08 319.99 230.66 317.68 231.76 C 317.30 232.23 316.92 232.71 316.56 233.20 C 315.28 232.65 314.00 232.09 312.72 231.56 C 312.35 231.40 311.61 231.09 311.24 230.94 C 311.18 229.29 311.14 227.65 311.12 226.01 Z" />
</g>
<g id="#2ccae0ff">
<path fill="#2ccae0" opacity="1.00" d=" M 321.80 226.16 C 325.21 225.98 328.62 225.99 332.04 226.05 C 333.44 228.12 334.79 230.24 335.88 232.50 C 331.99 233.84 327.81 233.28 323.78 233.31 C 323.95 231.84 322.76 231.06 321.94 230.11 C 321.82 228.79 321.77 227.47 321.80 226.16 Z" />
</g>
<g id="#2acfddff">
<path fill="#2acfdd" opacity="1.00" d=" M 336.83 226.06 C 339.59 226.00 342.36 226.02 345.13 226.08 C 345.18 227.55 345.24 229.02 345.31 230.49 C 344.66 230.86 344.01 231.19 343.35 231.50 C 341.78 232.02 340.20 232.46 338.62 232.89 C 338.58 231.71 337.58 231.07 336.82 230.34 C 336.82 228.91 336.82 227.48 336.83 226.06 Z" />
</g>
<g id="#2ec8deff">
<path fill="#2ec8de" opacity="1.00" d=" M 349.81 228.85 C 353.52 225.63 359.00 225.39 363.57 226.61 C 367.10 227.48 369.95 230.60 370.00 234.32 C 367.07 233.69 364.17 232.90 361.24 232.29 C 359.38 232.30 356.54 231.41 355.74 233.76 C 355.35 235.35 355.52 237.01 355.58 238.63 C 353.08 236.95 349.96 237.40 347.12 237.21 C 347.29 234.26 347.42 230.96 349.81 228.85 Z" />
</g>
<g id="#35b9e1ff">
<path fill="#35b9e1" opacity="1.00" d=" M 279.69 228.30 L 279.77 228.17 C 279.64 230.78 280.67 234.26 278.04 235.99 C 274.84 238.05 270.81 237.74 267.20 238.43 C 265.22 237.31 262.85 237.71 260.71 237.26 C 259.25 235.81 260.06 233.60 259.82 231.79 C 262.46 231.72 265.09 231.39 267.69 230.93 C 267.68 231.70 267.67 233.25 267.66 234.02 C 268.85 233.78 270.05 233.53 271.25 233.28 C 271.29 232.71 271.37 231.55 271.41 230.97 C 273.39 231.25 275.52 232.19 277.51 231.44 C 278.35 230.48 278.99 229.37 279.69 228.30 Z" />
</g>
<g id="#0307090b">
<path fill="#030709" opacity="0.04" d=" M 267.77 228.85 C 269.22 229.15 270.91 229.31 271.41 230.97 C 271.37 231.55 271.29 232.71 271.25 233.28 C 270.05 233.53 268.85 233.78 267.66 234.02 C 267.67 233.25 267.68 231.70 267.69 230.93 C 267.71 230.41 267.75 229.37 267.77 228.85 Z" />
</g>
<g id="#479ee5ff">
<path fill="#479ee5" opacity="1.00" d=" M 259.17 231.52 C 259.33 231.59 259.65 231.73 259.82 231.79 C 260.06 233.60 259.25 235.81 260.71 237.26 C 262.85 237.71 265.22 237.31 267.20 238.43 L 267.88 239.43 C 268.32 239.67 269.20 240.16 269.64 240.40 C 269.63 242.23 269.63 244.06 269.64 245.90 C 265.51 245.94 261.37 245.93 257.24 245.92 C 257.24 244.05 257.24 242.18 257.24 240.32 C 257.73 240.09 258.71 239.65 259.20 239.43 C 259.17 236.79 259.16 234.16 259.17 231.52 Z" />
</g>
<g id="#39b7e4ff">
<path fill="#39b7e4" opacity="1.00" d=" M 285.98 233.86 C 286.69 232.84 287.41 231.83 288.13 230.82 C 289.37 232.31 290.62 233.79 291.88 235.27 C 291.76 236.55 291.60 237.82 291.41 239.10 L 291.04 239.52 C 288.64 239.06 286.26 238.47 283.83 238.18 C 283.68 236.30 283.71 234.42 283.80 232.54 C 284.34 232.87 285.43 233.53 285.98 233.86 Z" />
</g>
<g id="#3db2dfff">
<path fill="#3db2df" opacity="1.00" d=" M 316.56 233.20 C 316.92 232.71 317.30 232.23 317.68 231.76 C 317.57 234.31 317.60 236.87 317.58 239.43 C 316.05 238.53 314.36 238.76 312.78 239.38 C 311.97 239.18 311.17 238.97 310.38 238.77 C 309.65 239.20 308.93 239.64 308.21 240.08 C 307.66 239.36 307.11 238.65 306.56 237.93 C 306.03 237.82 304.97 237.60 304.44 237.49 C 303.72 237.03 303.17 236.40 302.79 235.58 C 302.90 236.90 303.01 238.23 303.10 239.55 L 302.24 239.63 C 300.76 239.72 299.28 239.80 297.81 239.88 C 297.80 237.15 297.78 234.42 297.82 231.69 C 298.64 232.22 299.47 232.74 300.31 233.26 C 301.63 233.04 302.98 233.01 304.18 233.70 C 306.16 234.67 308.16 233.06 309.98 232.40 L 310.15 232.32 C 310.93 233.55 311.71 234.78 312.49 236.02 C 312.56 234.53 312.64 233.04 312.72 231.56 C 314.00 232.09 315.28 232.65 316.56 233.20 Z" />
</g>
<g id="#3cb1e2ff">
<path fill="#3cb1e2" opacity="1.00" d=" M 335.88 232.50 L 336.12 232.43 C 336.85 233.61 337.59 234.79 338.31 235.98 C 338.39 235.21 338.54 233.67 338.62 232.89 C 340.20 232.46 341.78 232.02 343.35 231.50 C 343.48 234.12 343.49 236.75 343.30 239.38 C 339.34 238.47 335.74 241.35 331.78 240.32 C 330.98 238.72 330.06 237.18 328.84 235.88 C 328.74 237.15 328.66 238.42 328.59 239.70 C 326.98 239.57 325.37 239.52 323.77 239.65 C 323.69 237.54 323.66 235.42 323.78 233.31 C 327.81 233.28 331.99 233.84 335.88 232.50 Z" />
</g>
<g id="#38b3e1ff">
<path fill="#38b3e1" opacity="1.00" d=" M 361.24 232.29 C 364.17 232.90 367.07 233.69 370.00 234.32 L 370.34 234.40 C 370.59 235.78 370.43 237.01 369.83 238.08 L 369.09 238.31 C 366.57 238.15 364.03 238.28 361.65 239.17 C 361.81 236.87 361.77 234.55 361.24 232.29 Z" />
</g>
<g id="#479ce5ff">
<path fill="#479ce5" opacity="1.00" d=" M 304.44 237.49 C 304.97 237.60 306.03 237.82 306.56 237.93 C 307.11 238.65 307.66 239.36 308.21 240.08 C 308.93 239.64 309.65 239.20 310.38 238.77 C 311.17 238.97 311.97 239.18 312.78 239.38 C 314.36 238.76 316.05 238.53 317.58 239.43 C 318.04 239.67 318.95 240.14 319.40 240.38 C 319.35 242.27 319.33 244.16 319.32 246.06 C 315.88 246.11 312.43 246.15 309.01 245.80 C 307.58 242.98 305.91 240.29 304.44 237.49 Z" />
</g>
<g id="#479ee6ff">
<path fill="#479ee6" opacity="1.00" d=" M 347.12 237.21 C 349.96 237.40 353.08 236.95 355.58 238.63 C 357.33 240.21 359.59 240.00 361.65 239.17 C 364.03 238.28 366.57 238.15 369.09 238.31 L 369.42 238.90 C 369.72 242.26 366.48 244.58 363.60 245.47 C 359.23 246.53 354.11 246.44 350.39 243.63 C 348.36 242.11 347.79 239.50 347.12 237.21 Z" />
</g>
<g id="#489de4ff">
<path fill="#489de4" opacity="1.00" d=" M 283.83 238.18 C 286.26 238.47 288.64 239.06 291.04 239.52 C 291.62 239.64 292.78 239.87 293.36 239.99 C 293.61 242.02 293.65 244.07 293.64 246.12 C 289.85 246.10 286.06 245.86 282.28 246.04 C 282.43 243.84 281.15 240.96 283.41 239.51 C 283.52 239.18 283.72 238.51 283.83 238.18 Z" />
</g>
<g id="#4a9ae5ff">
<path fill="#4a9ae5" opacity="1.00" d=" M 323.77 239.65 C 325.37 239.52 326.98 239.57 328.59 239.70 C 329.01 239.76 329.86 239.86 330.28 239.91 C 330.29 241.90 330.32 243.89 330.36 245.88 C 327.63 245.93 324.91 245.94 322.19 245.95 C 322.17 243.93 322.17 241.91 322.17 239.89 C 322.57 239.83 323.37 239.71 323.77 239.65 Z" />
</g>
<g id="#4a9be6ff">
<path fill="#4a9be6" opacity="1.00" d=" M 331.78 240.32 C 335.74 241.35 339.34 238.47 343.30 239.38 C 343.97 239.76 344.62 240.18 345.27 240.62 C 345.24 242.35 345.23 244.08 345.23 245.81 C 341.88 245.86 338.39 246.59 335.13 245.76 C 333.77 244.10 332.88 242.13 331.78 240.32 Z" />
</g>
<g id="#4a9ce5ff">
<path fill="#4a9ce5" opacity="1.00" d=" M 296.25 239.96 C 296.64 239.94 297.42 239.90 297.81 239.88 C 299.28 239.80 300.76 239.72 302.24 239.63 C 302.78 239.66 303.88 239.72 304.42 239.75 C 304.46 241.86 304.49 243.98 304.49 246.09 C 301.75 245.98 299.00 245.92 296.26 245.96 C 296.26 243.96 296.25 241.96 296.25 239.96 Z" />
</g>
<g id="#bc67d4ff">
<path fill="#bc67d4" opacity="1.00" d=" M 146.72 257.01 C 160.28 248.07 178.80 247.76 192.65 256.26 C 192.74 257.44 192.83 258.63 192.92 259.82 C 191.01 260.32 189.12 260.98 187.13 261.03 C 177.25 260.87 167.31 262.01 157.48 260.61 C 154.15 260.26 150.83 260.91 147.50 260.95 C 147.26 259.71 147.01 258.47 146.76 257.24 L 146.72 257.01 Z" />
</g>
<g id="#a65dceff">
<path fill="#a65dce" opacity="1.00" d=" M 192.65 256.26 C 197.20 259.14 201.21 262.83 204.48 267.10 L 204.53 267.42 C 204.81 270.68 206.64 273.50 207.24 276.69 C 189.86 275.53 172.43 276.45 155.02 275.96 C 149.22 275.70 143.18 277.11 137.63 274.79 C 136.34 275.51 135.05 276.25 133.77 277.00 C 133.31 275.80 132.85 274.60 132.43 273.40 C 135.54 266.84 140.69 261.19 146.76 257.24 C 147.01 258.47 147.26 259.71 147.50 260.95 C 150.83 260.91 154.15 260.26 157.48 260.61 C 167.31 262.01 177.25 260.87 187.13 261.03 C 189.12 260.98 191.01 260.32 192.92 259.82 C 192.83 258.63 192.74 257.44 192.65 256.26 Z" />
</g>
<g id="#f9d222ff">
<path fill="#f9d222" opacity="1.00" d=" M 284.90 261.89 C 283.43 258.76 288.21 256.54 290.21 258.78 C 291.38 260.52 292.02 262.54 292.86 264.45 C 301.41 284.36 309.99 304.25 318.55 324.14 C 317.79 325.58 316.86 327.16 314.98 327.09 C 312.51 327.23 311.90 324.62 311.06 322.87 C 302.40 302.52 293.48 282.27 284.90 261.89 Z" />
<path fill="#f9d222" opacity="1.00" d=" M 547.49 258.67 C 555.48 256.75 564.31 258.29 571.09 262.97 C 573.04 264.09 572.87 267.09 570.92 268.12 C 568.35 269.53 566.01 266.99 563.68 266.18 C 556.13 262.38 546.65 263.95 540.22 269.24 C 529.76 277.40 526.71 293.03 532.16 304.92 C 535.50 312.17 541.81 318.55 549.84 320.20 C 558.09 322.48 568.15 318.95 572.25 311.20 C 574.92 306.22 573.98 300.43 574.11 295.02 C 574.29 293.54 573.77 291.37 575.37 290.52 C 577.19 289.02 580.69 290.44 580.45 292.93 C 580.18 299.80 581.72 307.22 578.31 313.56 C 574.45 321.15 566.35 326.11 557.97 326.95 C 548.92 327.83 539.55 324.30 533.29 317.72 C 520.69 305.38 519.96 283.51 530.74 269.79 C 534.85 264.33 540.82 260.25 547.49 258.67 Z" />
<path fill="#f9d222" opacity="1.00" d=" M 281.09 270.17 C 282.72 269.58 285.37 270.07 285.66 272.09 C 286.06 273.38 285.30 274.65 284.89 275.85 C 277.83 292.16 270.82 308.48 263.77 324.80 C 263.10 327.79 258.48 327.81 257.43 325.06 C 257.15 322.93 258.50 321.08 259.22 319.18 C 265.99 303.64 272.68 288.07 279.42 272.52 C 279.77 271.59 280.32 270.80 281.09 270.17 Z" />
</g>
<g id="#fad225ff">
<path fill="#fad225" opacity="1.00" d=" M 331.24 259.98 C 331.90 257.04 336.22 257.45 337.48 259.77 C 337.44 268.19 337.52 276.62 337.43 285.05 C 335.95 287.03 332.17 287.73 331.28 284.92 C 331.05 276.62 331.08 268.28 331.24 259.98 Z" />
<path fill="#fad225" opacity="1.00" d=" M 634.51 267.59 C 636.70 266.47 640.54 266.72 640.41 269.96 C 640.51 287.96 640.54 305.98 640.40 323.98 C 640.64 328.04 633.69 327.98 633.94 323.92 C 633.66 307.29 633.94 290.65 633.81 274.02 C 633.72 271.85 634.03 269.70 634.51 267.59 Z" />
</g>
<g id="#fad123ff">
<path fill="#fad123" opacity="1.00" d=" M 375.43 259.55 C 377.12 257.15 381.93 257.57 381.69 261.03 C 381.79 268.68 381.78 276.33 381.70 283.98 C 381.99 287.53 376.01 287.97 375.49 284.61 C 375.28 276.26 375.45 267.90 375.43 259.55 Z" />
</g>
<g id="#fbd221ff">
<path fill="#fbd221" opacity="1.00" d=" M 391.82 258.86 C 392.95 257.79 394.57 257.99 396.01 257.93 C 410.35 257.95 424.69 257.95 439.03 257.93 C 440.47 257.89 441.90 258.15 443.30 258.52 C 443.62 259.36 443.96 260.21 444.31 261.06 C 443.67 262.39 442.96 264.18 441.13 263.96 C 425.40 264.06 409.67 264.02 393.95 263.98 C 391.32 264.01 390.80 260.73 391.82 258.86 Z" />
</g>
<g id="#fad223ff">
<path fill="#fad223" opacity="1.00" d=" M 475.44 258.56 C 483.90 256.70 493.12 258.56 500.08 263.75 C 512.57 272.66 517.49 290.25 512.26 304.54 C 509.22 313.45 502.49 321.20 493.70 324.77 C 483.63 329.04 471.27 327.35 462.83 320.36 C 449.86 310.32 446.09 290.89 453.44 276.40 C 457.56 267.50 465.86 260.72 475.44 258.56 M 476.56 264.72 C 472.68 265.62 469.04 267.50 465.99 270.06 C 456.46 278.11 453.42 292.49 458.18 303.90 C 461.58 312.95 470.14 319.89 479.83 320.83 C 488.97 321.65 498.19 316.73 503.03 308.99 C 510.60 297.68 509.22 281.15 499.48 271.53 C 493.65 265.65 484.68 262.57 476.56 264.72 Z" />
</g>
<g id="#f8d220ff">
<path fill="#f8d220" opacity="1.00" d=" M 594.53 259.64 C 596.02 257.08 601.27 257.37 600.76 260.94 C 600.85 281.99 600.86 303.06 600.75 324.11 C 601.38 328.18 594.01 327.86 594.56 323.94 C 594.49 302.51 594.56 281.07 594.53 259.64 Z" />
</g>
<g id="#f9d22aff">
<path fill="#f9d22a" opacity="1.00" d=" M 613.93 263.98 C 610.42 264.50 609.59 258.79 612.93 258.03 C 629.01 257.90 645.10 257.88 661.18 258.05 C 664.19 258.34 664.04 262.33 662.11 263.91 C 646.05 264.08 629.99 263.98 613.93 263.98 Z" />
</g>
<g id="#fad222ff">
<path fill="#fad222" opacity="1.00" d=" M 414.48 269.95 C 414.19 266.91 418.26 266.03 420.22 267.75 C 421.03 269.37 420.72 271.28 420.83 273.03 C 420.76 290.05 420.93 307.06 420.74 324.07 C 421.13 327.59 416.12 327.85 414.52 325.42 C 414.33 306.93 414.39 288.44 414.48 269.95 Z" />
<path fill="#fad222" opacity="1.00" d=" M 331.21 293.08 C 330.99 289.73 336.50 289.59 337.32 292.48 C 338.19 299.24 335.75 306.95 340.13 312.88 C 347.59 323.48 365.45 323.50 372.92 312.93 C 377.27 306.76 375.21 298.84 375.75 291.83 C 377.06 291.07 378.49 289.86 380.12 290.64 C 382.37 291.32 382.16 294.11 382.23 295.98 C 382.19 303.06 382.64 310.92 377.96 316.80 C 368.02 330.44 344.99 330.47 335.10 316.75 C 329.67 310.04 331.35 301.04 331.21 293.08 Z" />
</g>
<g id="#8d51c7ff">
<path fill="#8d51c7" opacity="1.00" d=" M 207.24 276.69 C 206.64 273.50 204.81 270.68 204.53 267.42 C 208.11 272.00 210.89 277.58 211.66 283.35 C 210.91 285.57 210.63 287.91 210.91 290.25 C 208.01 289.52 205.00 289.72 202.04 289.81 C 179.37 289.97 156.69 289.64 134.01 289.95 C 131.94 289.98 129.68 289.93 128.31 288.14 C 128.25 283.01 130.10 277.93 132.43 273.40 C 132.85 274.60 133.31 275.80 133.77 277.00 C 135.05 276.25 136.34 275.51 137.63 274.79 C 143.18 277.11 149.22 275.70 155.02 275.96 C 172.43 276.45 189.86 275.53 207.24 276.69 Z" />
</g>
<g id="#4ada61ff">
<path fill="#4ada61" opacity="1.00" d=" M 80.50 274.70 C 91.25 271.54 103.58 280.61 102.92 291.95 C 104.07 303.67 90.97 313.18 80.07 309.54 C 71.22 307.41 65.31 297.72 67.28 288.87 C 68.37 282.11 73.90 276.36 80.50 274.70 Z" />
</g>
<g id="#7846c1ff">
<path fill="#7846c1" opacity="1.00" d=" M 210.91 290.25 C 210.63 287.91 210.91 285.57 211.66 283.35 C 213.43 288.37 212.76 293.78 212.58 298.99 C 210.60 301.15 207.83 302.02 204.95 301.83 C 183.63 301.99 162.31 301.98 140.99 302.04 C 136.73 301.88 132.13 302.51 128.32 300.17 C 127.82 296.03 127.71 291.87 127.83 287.71 L 128.31 288.14 C 129.68 289.93 131.94 289.98 134.01 289.95 C 156.69 289.64 179.37 289.97 202.04 289.81 C 205.00 289.72 208.01 289.52 210.91 290.25 Z" />
</g>
<g id="#fad221ff">
<path fill="#fad221" opacity="1.00" d=" M 548.87 295.97 C 545.19 296.35 545.14 289.61 548.87 290.00 C 555.30 289.91 561.75 289.90 568.18 290.01 C 570.10 289.75 570.66 291.78 571.56 293.02 C 570.67 294.34 570.08 296.34 568.09 295.96 C 561.69 296.07 555.27 296.07 548.87 295.97 Z" />
</g>
<g id="#5f3abbff">
<path fill="#5f3abb" opacity="1.00" d=" M 204.95 301.83 C 207.83 302.02 210.60 301.15 212.58 298.99 C 211.40 305.22 209.16 311.28 205.59 316.55 C 205.07 316.32 204.04 315.85 203.52 315.61 C 202.66 316.54 201.84 317.51 200.91 318.38 C 199.76 317.78 198.70 317.03 197.62 316.34 C 192.73 316.88 187.88 315.80 182.99 315.98 C 171.31 316.26 159.63 315.67 147.95 316.13 C 143.55 316.16 139.17 315.15 134.76 315.63 L 134.33 315.65 C 131.61 310.80 129.40 305.65 128.32 300.17 C 132.13 302.51 136.73 301.88 140.99 302.04 C 162.31 301.98 183.63 301.99 204.95 301.83 Z" />
</g>
<g id="#f8d323ff">
<path fill="#f8d323" opacity="1.00" d=" M 277.89 304.85 C 276.35 303.04 276.00 299.51 278.96 299.04 C 284.70 298.83 290.46 298.90 296.20 299.02 C 299.70 298.96 299.59 305.03 296.15 304.95 C 290.07 305.07 283.97 305.14 277.89 304.85 Z" />
</g>
<g id="#452db4ff">
<path fill="#452db4" opacity="1.00" d=" M 134.76 315.63 C 139.17 315.15 143.55 316.16 147.95 316.13 C 159.63 315.67 171.31 316.26 182.99 315.98 C 187.88 315.80 192.73 316.88 197.62 316.34 C 198.70 317.03 199.76 317.78 200.91 318.38 C 201.84 317.51 202.66 316.54 203.52 315.61 C 204.04 315.85 205.07 316.32 205.59 316.55 C 199.43 325.56 189.78 332.11 179.06 334.29 C 162.41 338.19 143.48 330.40 134.76 315.63 Z" />
</g>
<g id="#f7902bff">
<path fill="#f7902b" opacity="1.00" d=" M 197.39 345.50 C 204.47 344.06 212.25 345.62 217.87 350.29 C 224.00 355.13 227.38 363.12 226.58 370.91 C 225.88 382.76 214.85 392.82 203.00 392.56 C 191.78 393.02 181.05 384.25 179.26 373.17 C 176.88 361.10 185.27 348.01 197.39 345.50 Z" />
</g>
</svg>
