<svg width="802" height="602" xmlns="http://www.w3.org/2000/svg">
 <!-- Created with Method Draw - http://github.com/duopixel/Method-Draw/ -->

 <g>
  <title>background</title>
  <rect fill="none" id="canvas_background" height="604" width="804" y="-1" x="-1"/>
  <g display="none" overflow="visible" y="0" x="0" height="100%" width="100%" id="canvasGrid">
   <rect fill="url(#gridpattern)" stroke-width="0" height="600" width="800"/>
  </g>
 </g>
 <g>
  <title>Layer 1</title>
  <g stroke="null" id="svg_128">
   <g stroke="null" transform="matrix(1.0097334995238396,0,0,1.0097334995238396,-4357.674694418627,-3820.1944806470065) " id="svg_80">
    <path stroke="null" stroke-width="0" id="svg_82" d="m4546.79139,4015.38159c4.65,-13.18 18.79,-22.1 32.69,-20.49c11.66,1.01 22.23,9.08 26.45,19.96c3.4,8.92 2.49,19.39 -2.41,27.58c-6.49,10.91 -19.65,16.89 -32.17,15.13c-9.78,-1.68 -18.46,-8.17 -23,-16.97c-3.83,-7.75 -4.44,-17.05 -1.56,-25.21z" fill="#5cb7d2"/>
    <path stroke="null" stroke-width="0" id="svg_83" d="m4501.42139,4011.81159c13.29,-4.49 27.73,-5.33 41.52,-3.03c-1.51,3.19 -2.51,6.58 -3.74,9.87c-9.44,0.33 -19.33,-1.1 -28.58,1.87c-24.6,5.64 -45.51,24.82 -53.34,48.8c-0.76,1.95 -1.03,4.17 -2.42,5.83c-2.67,-2.03 -6.02,-2.48 -9.27,-2.64c1.83,-14.02 10.03,-26.34 18.98,-36.93c10.18,-10.66 22.72,-19.33 36.85,-23.77z" fill="#5cb7d2"/>
    <path stroke="null" stroke-width="0" id="svg_84" d="m4595.55139,4057.81159c2.91,-2.14 6.03,-4.11 8.26,-7c7.51,13.56 11.77,29 11.37,44.54c-0.09,22.13 -9.39,44.03 -25.12,59.58c-0.66,0.66 -2.19,2.33 -2.93,0.86c-1.56,-2.32 -3.4,-4.42 -5.3,-6.47c0.03,-0.34 0.09,-1.01 0.12,-1.35c6.99,-7 12.36,-15.47 16.47,-24.44c5.99,-14.31 7.47,-30.48 4.24,-45.65c-1.31,-7.04 -4.29,-13.55 -7.11,-20.07z" fill="#5cb7d2"/>
    <path stroke="null" stroke-width="0" id="svg_85" d="m4448.60139,4114.64159c2.08,-1.02 4.51,-1.5 6.19,-3.2c1.97,5.76 3.4,11.78 6.4,17.13c9.54,18.07 26.31,32.47 46.12,37.96c8.37,2.47 17.14,3.39 25.85,3.21c-0.19,3.68 1.4,7.23 0.87,10.91c-5.92,0.1 -11.82,-0.46 -17.71,-0.96c-14.94,-2.42 -29.53,-8.24 -41.37,-17.78c-15.07,-11.54 -25.95,-28.45 -29.99,-47.01c1.21,-0.09 2.42,-0.18 3.64,-0.26z" fill="#5cb7d2"/>
   </g>
   <g stroke="null" transform="matrix(1.0097334995238396,0,0,1.0097334995238396,-4357.674694418627,-3820.1944806470065) " id="svg_79">
    <path stroke="null" stroke-width="0" id="svg_86" d="m4616.70139,4026.43159c4.59,-0.03 9.18,-0.04 13.78,-0.03c3.14,-0.03 6.65,0.64 8.69,3.28c-0.7,1.07 -1.34,2.18 -2.18,3.14c-1.99,0.75 -4.12,-0.19 -6.1,-0.47c-0.5,-1.66 -2.19,-1.82 -3.64,-2.12c-0.02,0.52 -0.06,1.56 -0.08,2.08c-2.6,0.46 -5.23,0.79 -7.87,0.86c-0.17,-0.06 -0.49,-0.2 -0.65,-0.27c-0.47,-0.2 -1.42,-0.6 -1.89,-0.79c-0.03,-1.9 -0.05,-3.79 -0.06,-5.68z" fill="#27d1dc"/>
   </g>
   <g stroke="null" transform="matrix(1.0097334995238396,0,0,1.0097334995238396,-4357.674694418627,-3820.1944806470065) " id="svg_78">
    <path stroke="null" stroke-width="0" id="svg_87" d="m4641.30139,4027.52159c3.93,-0.19 7.86,-0.13 11.79,-0.1c0.01,1.77 0.01,3.54 0.01,5.32c-0.47,0.31 -1.42,0.93 -1.9,1.24c0.04,0.67 0.12,2 0.16,2.67c-1.26,-1.48 -2.51,-2.96 -3.75,-4.45c-0.72,1.01 -1.44,2.02 -2.15,3.04c-0.55,-0.33 -1.64,-0.99 -2.18,-1.32c-0.38,-0.22 -1.13,-0.67 -1.5,-0.89c-0.27,-1.83 -0.45,-3.67 -0.48,-5.51z" fill="#2acddd"/>
   </g>
   <g stroke="null" transform="matrix(1.0097334995238396,0,0,1.0097334995238396,-4357.674694418627,-3820.1944806470065) " id="svg_77">
    <path stroke="null" stroke-width="0" id="svg_88" d="m4655.68139,4027.37159c3.27,0.08 6.54,-0.11 9.8,0.11c1.75,1.8 2.75,4.15 3.98,6.3c-1.82,0.66 -3.82,2.27 -5.8,1.3c-1.2,-0.69 -2.55,-0.66 -3.87,-0.44c-0.84,-0.52 -1.67,-1.04 -2.49,-1.57c-0.39,-0.25 -1.15,-0.74 -1.54,-0.98c-0.03,-1.58 -0.06,-3.15 -0.08,-4.72z" fill="#2acdde"/>
   </g>
   <g stroke="null" transform="matrix(1.0097334995238396,0,0,1.0097334995238396,-4357.674694418627,-3820.1944806470065) " id="svg_76">
    <path stroke="null" stroke-width="0" id="svg_89" d="m4670.60139,4027.39159c2.73,0 5.46,0.01 8.2,0.04c-0.13,2.03 0.67,4.61 -1.64,5.71c-0.38,0.47 -0.76,0.95 -1.12,1.44c-1.28,-0.55 -2.56,-1.11 -3.84,-1.64c-0.37,-0.16 -1.11,-0.47 -1.48,-0.62c-0.06,-1.65 -0.1,-3.29 -0.12,-4.93z" fill="#26cfdf"/>
   </g>
   <g stroke="null" transform="matrix(1.0097334995238396,0,0,1.0097334995238396,-4357.674694418627,-3820.1944806470065) " id="svg_75">
    <path stroke="null" stroke-width="0" id="svg_90" d="m4681.28139,4027.54159c3.41,-0.18 6.82,-0.17 10.24,-0.11c1.4,2.07 2.75,4.19 3.84,6.45c-3.89,1.34 -8.07,0.78 -12.1,0.81c0.17,-1.47 -1.02,-2.25 -1.84,-3.2c-0.12,-1.32 -0.17,-2.64 -0.14,-3.95z" fill="#2ccae0"/>
   </g>
   <g stroke="null" transform="matrix(1.0097334995238396,0,0,1.0097334995238396,-4357.674694418627,-3820.1944806470065) " id="svg_74">
    <path stroke="null" stroke-width="0" id="svg_91" d="m4696.31139,4027.44159c2.76,-0.06 5.53,-0.04 8.3,0.02c0.05,1.47 0.11,2.94 0.18,4.41c-0.65,0.37 -1.3,0.7 -1.96,1.01c-1.57,0.52 -3.15,0.96 -4.73,1.39c-0.04,-1.18 -1.04,-1.82 -1.8,-2.55c0,-1.43 0,-2.86 0.01,-4.28z" fill="#2acfdd"/>
   </g>
   <g stroke="null" transform="matrix(1.0097334995238396,0,0,1.0097334995238396,-4357.674694418627,-3820.1944806470065) " id="svg_73">
    <path stroke="null" stroke-width="0" id="svg_92" d="m4709.29139,4030.23159c3.71,-3.22 9.19,-3.46 13.76,-2.24c3.53,0.87 6.38,3.99 6.43,7.71c-2.93,-0.63 -5.83,-1.42 -8.76,-2.03c-1.86,0.01 -4.7,-0.88 -5.5,1.47c-0.39,1.59 -0.22,3.25 -0.16,4.87c-2.5,-1.68 -5.62,-1.23 -8.46,-1.42c0.17,-2.95 0.3,-6.25 2.69,-8.36z" fill="#2ec8de"/>
   </g>
   <g stroke="null" transform="matrix(1.0097334995238396,0,0,1.0097334995238396,-4357.674694418627,-3820.1944806470065) " id="svg_72">
    <path stroke="null" stroke-width="0" id="svg_93" d="m4639.17139,4029.68159l0.08,-0.13c-0.13,2.61 0.9,6.09 -1.73,7.82c-3.2,2.06 -7.23,1.75 -10.84,2.44c-1.98,-1.12 -4.35,-0.72 -6.49,-1.17c-1.46,-1.45 -0.65,-3.66 -0.89,-5.47c2.64,-0.07 5.27,-0.4 7.87,-0.86c-0.01,0.77 -0.02,2.32 -0.03,3.09c1.19,-0.24 2.39,-0.49 3.59,-0.74c0.04,-0.57 0.12,-1.73 0.16,-2.31c1.98,0.28 4.11,1.22 6.1,0.47c0.84,-0.96 1.48,-2.07 2.18,-3.14z" fill="#35b9e1"/>
   </g>
   <g stroke="null" transform="matrix(1.0097334995238396,0,0,1.0097334995238396,-4357.674694418627,-3820.1944806470065) " id="svg_71">
    <path stroke="null" stroke-width="0" id="svg_94" d="m4627.25139,4030.23159c1.45,0.3 3.14,0.46 3.64,2.12c-0.04,0.58 -0.12,1.74 -0.16,2.31c-1.2,0.25 -2.4,0.5 -3.59,0.74c0.01,-0.77 0.02,-2.32 0.03,-3.09c0.02,-0.52 0.06,-1.56 0.08,-2.08z" opacity="0.04" fill="#030709"/>
   </g>
   <g stroke="null" transform="matrix(1.0097334995238396,0,0,1.0097334995238396,-4357.674694418627,-3820.1944806470065) " id="svg_70">
    <path stroke="null" stroke-width="0" id="svg_95" d="m4618.65139,4032.90159c0.16,0.07 0.48,0.21 0.65,0.27c0.24,1.81 -0.57,4.02 0.89,5.47c2.14,0.45 4.51,0.05 6.49,1.17l0.68,1c0.44,0.24 1.32,0.73 1.76,0.97c-0.01,1.83 -0.01,3.66 0,5.5c-4.13,0.04 -8.27,0.03 -12.4,0.02c0,-1.87 0,-3.74 0,-5.6c0.49,-0.23 1.47,-0.67 1.96,-0.89c-0.03,-2.64 -0.04,-5.27 -0.03,-7.91z" fill="#479ee5"/>
   </g>
   <g stroke="null" transform="matrix(1.0097334995238396,0,0,1.0097334995238396,-4357.674694418627,-3820.1944806470065) " id="svg_69">
    <path stroke="null" stroke-width="0" id="svg_96" d="m4645.46139,4035.24159c0.71,-1.02 1.43,-2.03 2.15,-3.04c1.24,1.49 2.49,2.97 3.75,4.45c-0.12,1.28 -0.28,2.55 -0.47,3.83l-0.37,0.42c-2.4,-0.46 -4.78,-1.05 -7.21,-1.34c-0.15,-1.88 -0.12,-3.76 -0.03,-5.64c0.54,0.33 1.63,0.99 2.18,1.32z" fill="#39b7e4"/>
   </g>
   <g stroke="null" transform="matrix(1.0097334995238396,0,0,1.0097334995238396,-4357.674694418627,-3820.1944806470065) " id="svg_68">
    <path stroke="null" stroke-width="0" id="svg_97" d="m4676.04139,4034.58159c0.36,-0.49 0.74,-0.97 1.12,-1.44c-0.11,2.55 -0.08,5.11 -0.1,7.67c-1.53,-0.9 -3.22,-0.67 -4.8,-0.05c-0.81,-0.2 -1.61,-0.41 -2.4,-0.61c-0.73,0.43 -1.45,0.87 -2.17,1.31c-0.55,-0.72 -1.1,-1.43 -1.65,-2.15c-0.53,-0.11 -1.59,-0.33 -2.12,-0.44c-0.72,-0.46 -1.27,-1.09 -1.65,-1.91c0.11,1.32 0.22,2.65 0.31,3.97l-0.86,0.08c-1.48,0.09 -2.96,0.17 -4.43,0.25c-0.01,-2.73 -0.03,-5.46 0.01,-8.19c0.82,0.53 1.65,1.05 2.49,1.57c1.32,-0.22 2.67,-0.25 3.87,0.44c1.98,0.97 3.98,-0.64 5.8,-1.3l0.17,-0.08c0.78,1.23 1.56,2.46 2.34,3.7c0.07,-1.49 0.15,-2.98 0.23,-4.46c1.28,0.53 2.56,1.09 3.84,1.64z" fill="#3db2df"/>
   </g>
   <g stroke="null" transform="matrix(1.0097334995238396,0,0,1.0097334995238396,-4357.674694418627,-3820.1944806470065) " id="svg_67">
    <path stroke="null" stroke-width="0" id="svg_98" d="m4695.36139,4033.88159l0.24,-0.07c0.73,1.18 1.47,2.36 2.19,3.55c0.08,-0.77 0.23,-2.31 0.31,-3.09c1.58,-0.43 3.16,-0.87 4.73,-1.39c0.13,2.62 0.14,5.25 -0.05,7.88c-3.96,-0.91 -7.56,1.97 -11.52,0.94c-0.8,-1.6 -1.72,-3.14 -2.94,-4.44c-0.1,1.27 -0.18,2.54 -0.25,3.82c-1.61,-0.13 -3.22,-0.18 -4.82,-0.05c-0.08,-2.11 -0.11,-4.23 0.01,-6.34c4.03,-0.03 8.21,0.53 12.1,-0.81z" fill="#3cb1e2"/>
   </g>
   <g stroke="null" transform="matrix(1.0097334995238396,0,0,1.0097334995238396,-4357.674694418627,-3820.1944806470065) " id="svg_66">
    <path stroke="null" stroke-width="0" id="svg_99" d="m4720.72139,4033.67159c2.93,0.61 5.83,1.4 8.76,2.03l0.34,0.08c0.25,1.38 0.09,2.61 -0.51,3.68l-0.74,0.23c-2.52,-0.16 -5.06,-0.03 -7.44,0.86c0.16,-2.3 0.12,-4.62 -0.41,-6.88z" fill="#38b3e1"/>
   </g>
   <g stroke="null" transform="matrix(1.0097334995238396,0,0,1.0097334995238396,-4357.674694418627,-3820.1944806470065) " id="svg_65">
    <path stroke="null" stroke-width="0" id="svg_100" d="m4663.92139,4038.87159c0.53,0.11 1.59,0.33 2.12,0.44c0.55,0.72 1.1,1.43 1.65,2.15c0.72,-0.44 1.44,-0.88 2.17,-1.31c0.79,0.2 1.59,0.41 2.4,0.61c1.58,-0.62 3.27,-0.85 4.8,0.05c0.46,0.24 1.37,0.71 1.82,0.95c-0.05,1.89 -0.07,3.78 -0.08,5.68c-3.44,0.05 -6.89,0.09 -10.31,-0.26c-1.43,-2.82 -3.1,-5.51 -4.57,-8.31z" fill="#479ce5"/>
   </g>
   <g stroke="null" transform="matrix(1.0097334995238396,0,0,1.0097334995238396,-4357.674694418627,-3820.1944806470065) " id="svg_64">
    <path stroke="null" stroke-width="0" id="svg_101" d="m4706.60139,4038.59159c2.84,0.19 5.96,-0.26 8.46,1.42c1.75,1.58 4.01,1.37 6.07,0.54c2.38,-0.89 4.92,-1.02 7.44,-0.86l0.33,0.59c0.3,3.36 -2.94,5.68 -5.82,6.57c-4.37,1.06 -9.49,0.97 -13.21,-1.84c-2.03,-1.52 -2.6,-4.13 -3.27,-6.42z" fill="#479ee6"/>
   </g>
   <g stroke="null" transform="matrix(1.0097334995238396,0,0,1.0097334995238396,-4357.674694418627,-3820.1944806470065) " id="svg_63">
    <path stroke="null" stroke-width="0" id="svg_102" d="m4643.31139,4039.56159c2.43,0.29 4.81,0.88 7.21,1.34c0.58,0.12 1.74,0.35 2.32,0.47c0.25,2.03 0.29,4.08 0.28,6.13c-3.79,-0.02 -7.58,-0.26 -11.36,-0.08c0.15,-2.2 -1.13,-5.08 1.13,-6.53c0.11,-0.33 0.31,-1 0.42,-1.33z" fill="#489de4"/>
   </g>
   <g stroke="null" transform="matrix(1.0097334995238396,0,0,1.0097334995238396,-4357.674694418627,-3820.1944806470065) " id="svg_62">
    <path stroke="null" stroke-width="0" id="svg_103" d="m4683.25139,4041.03159c1.6,-0.13 3.21,-0.08 4.82,0.05c0.42,0.06 1.27,0.16 1.69,0.21c0.01,1.99 0.04,3.98 0.08,5.97c-2.73,0.05 -5.45,0.06 -8.17,0.07c-0.02,-2.02 -0.02,-4.04 -0.02,-6.06c0.4,-0.06 1.2,-0.18 1.6,-0.24z" fill="#4a9ae5"/>
   </g>
   <g stroke="null" transform="matrix(1.0097334995238396,0,0,1.0097334995238396,-4357.674694418627,-3820.1944806470065) " id="svg_61">
    <path stroke="null" stroke-width="0" id="svg_104" d="m4691.26139,4041.70159c3.96,1.03 7.56,-1.85 11.52,-0.94c0.67,0.38 1.32,0.8 1.97,1.24c-0.03,1.73 -0.04,3.46 -0.04,5.19c-3.35,0.05 -6.84,0.78 -10.1,-0.05c-1.36,-1.66 -2.25,-3.63 -3.35,-5.44z" fill="#4a9be6"/>
   </g>
   <g stroke="null" transform="matrix(1.0097334995238396,0,0,1.0097334995238396,-4357.674694418627,-3820.1944806470065) " id="svg_60">
    <path stroke="null" stroke-width="0" id="svg_105" d="m4655.73139,4041.34159c0.39,-0.02 1.17,-0.06 1.56,-0.08c1.47,-0.08 2.95,-0.16 4.43,-0.25c0.54,0.03 1.64,0.09 2.18,0.12c0.04,2.11 0.07,4.23 0.07,6.34c-2.74,-0.11 -5.49,-0.17 -8.23,-0.13c0,-2 -0.01,-4 -0.01,-6z" fill="#4a9ce5"/>
   </g>
   <g stroke="null" transform="matrix(1.0097334995238396,0,0,1.0097334995238396,-4357.674694418627,-3820.1944806470065) " id="svg_59">
    <path stroke="null" stroke-width="0" id="svg_106" d="m4506.20139,4058.39159c13.56,-8.94 32.08,-9.25 45.93,-0.75c0.09,1.18 0.18,2.37 0.27,3.56c-1.91,0.5 -3.8,1.16 -5.79,1.21c-9.88,-0.16 -19.82,0.98 -29.65,-0.42c-3.33,-0.35 -6.65,0.3 -9.98,0.34c-0.24,-1.24 -0.49,-2.48 -0.74,-3.71l-0.04,-0.23z" fill="#bc67d4"/>
   </g>
   <g stroke="null" transform="matrix(1.0097334995238396,0,0,1.0097334995238396,-4357.674694418627,-3820.1944806470065) " id="svg_58">
    <path stroke="null" stroke-width="0" id="svg_107" d="m4552.13139,4057.64159c4.55,2.88 8.56,6.57 11.83,10.84l0.05,0.32c0.28,3.26 2.11,6.08 2.71,9.27c-17.38,-1.16 -34.81,-0.24 -52.22,-0.73c-5.8,-0.26 -11.84,1.15 -17.39,-1.17c-1.29,0.72 -2.58,1.46 -3.86,2.21c-0.46,-1.2 -0.92,-2.4 -1.34,-3.6c3.11,-6.56 8.26,-12.21 14.33,-16.16c0.25,1.23 0.5,2.47 0.74,3.71c3.33,-0.04 6.65,-0.69 9.98,-0.34c9.83,1.4 19.77,0.26 29.65,0.42c1.99,-0.05 3.88,-0.71 5.79,-1.21c-0.09,-1.19 -0.18,-2.38 -0.27,-3.56z" fill="#a65dce"/>
   </g>
   <g stroke="null" transform="matrix(1.0097334995238396,0,0,1.0097334995238396,-4357.674694418627,-3820.1944806470065) " id="svg_57">
    <path stroke="null" stroke-width="0" id="svg_108" d="m4644.38139,4063.27159c-1.47,-3.13 3.31,-5.35 5.31,-3.11c1.17,1.74 1.81,3.76 2.65,5.67c8.55,19.91 17.13,39.8 25.69,59.69c-0.76,1.44 -1.69,3.02 -3.57,2.95c-2.47,0.14 -3.08,-2.47 -3.92,-4.22c-8.66,-20.35 -17.58,-40.6 -26.16,-60.98z" fill="#f9d222"/>
    <path stroke="null" stroke-width="0" id="svg_109" d="m4906.97139,4060.05159c7.99,-1.92 16.82,-0.38 23.6,4.3c1.95,1.12 1.78,4.12 -0.17,5.15c-2.57,1.41 -4.91,-1.13 -7.24,-1.94c-7.55,-3.8 -17.03,-2.23 -23.46,3.06c-10.46,8.16 -13.51,23.79 -8.06,35.68c3.34,7.25 9.65,13.63 17.68,15.28c8.25,2.28 18.31,-1.25 22.41,-9c2.67,-4.98 1.73,-10.77 1.86,-16.18c0.18,-1.48 -0.34,-3.65 1.26,-4.5c1.82,-1.5 5.32,-0.08 5.08,2.41c-0.27,6.87 1.27,14.29 -2.14,20.63c-3.86,7.59 -11.96,12.55 -20.34,13.39c-9.05,0.88 -18.42,-2.65 -24.68,-9.23c-12.6,-12.34 -13.33,-34.21 -2.55,-47.93c4.11,-5.46 10.08,-9.54 16.75,-11.12z" fill="#f9d222"/>
    <path stroke="null" stroke-width="0" id="svg_110" d="m4640.57139,4071.55159c1.63,-0.59 4.28,-0.1 4.57,1.92c0.4,1.29 -0.36,2.56 -0.77,3.76c-7.06,16.31 -14.07,32.63 -21.12,48.95c-0.67,2.99 -5.29,3.01 -6.34,0.26c-0.28,-2.13 1.07,-3.98 1.79,-5.88c6.77,-15.54 13.46,-31.11 20.2,-46.66c0.35,-0.93 0.9,-1.72 1.67,-2.35z" fill="#f9d222"/>
   </g>
   <g stroke="null" transform="matrix(1.0097334995238396,0,0,1.0097334995238396,-4357.674694418627,-3820.1944806470065) " id="svg_56">
    <path stroke="null" stroke-width="0" id="svg_111" d="m4690.72139,4061.36159c0.66,-2.94 4.98,-2.53 6.24,-0.21c-0.04,8.42 0.04,16.85 -0.05,25.28c-1.48,1.98 -5.26,2.68 -6.15,-0.13c-0.23,-8.3 -0.2,-16.64 -0.04,-24.94z" fill="#fad225"/>
    <path stroke="null" stroke-width="0" id="svg_112" d="m4993.99139,4068.97159c2.19,-1.12 6.03,-0.87 5.9,2.37c0.1,18 0.13,36.02 -0.01,54.02c0.24,4.06 -6.71,4 -6.46,-0.06c-0.28,-16.63 0,-33.27 -0.13,-49.9c-0.09,-2.17 0.22,-4.32 0.7,-6.43z" fill="#fad225"/>
   </g>
   <g stroke="null" transform="matrix(1.0097334995238396,0,0,1.0097334995238396,-4357.674694418627,-3820.1944806470065) " id="svg_55">
    <path stroke="null" stroke-width="0" id="svg_113" d="m4734.91139,4060.93159c1.69,-2.4 6.5,-1.98 6.26,1.48c0.1,7.65 0.09,15.3 0.01,22.95c0.29,3.55 -5.69,3.99 -6.21,0.63c-0.21,-8.35 -0.04,-16.71 -0.06,-25.06z" fill="#fad123"/>
   </g>
   <g stroke="null" transform="matrix(1.0097334995238396,0,0,1.0097334995238396,-4357.674694418627,-3820.1944806470065) " id="svg_54">
    <path stroke="null" stroke-width="0" id="svg_114" d="m4751.30139,4060.24159c1.13,-1.07 2.75,-0.87 4.19,-0.93c14.34,0.02 28.68,0.02 43.02,0c1.44,-0.04 2.87,0.22 4.27,0.59c0.32,0.84 0.66,1.69 1.01,2.54c-0.64,1.33 -1.35,3.12 -3.18,2.9c-15.73,0.1 -31.46,0.06 -47.18,0.02c-2.63,0.03 -3.15,-3.25 -2.13,-5.12z" fill="#fbd221"/>
   </g>
   <g stroke="null" transform="matrix(1.0097334995238396,0,0,1.0097334995238396,-4357.674694418627,-3820.1944806470065) " id="svg_53">
    <path stroke="null" stroke-width="0" id="svg_115" d="m4834.92139,4059.94159c8.46,-1.86 17.68,0 24.64,5.19c12.49,8.91 17.41,26.5 12.18,40.79c-3.04,8.91 -9.77,16.66 -18.56,20.23c-10.07,4.27 -22.43,2.58 -30.87,-4.41c-12.97,-10.04 -16.74,-29.47 -9.39,-43.96c4.12,-8.9 12.42,-15.68 22,-17.84m1.12,6.16c-3.88,0.9 -7.52,2.78 -10.57,5.34c-9.53,8.05 -12.57,22.43 -7.81,33.84c3.4,9.05 11.96,15.99 21.65,16.93c9.14,0.82 18.36,-4.1 23.2,-11.84c7.57,-11.31 6.19,-27.84 -3.55,-37.46c-5.83,-5.88 -14.8,-8.96 -22.92,-6.81z" fill="#fad223"/>
   </g>
   <g stroke="null" transform="matrix(1.0097334995238396,0,0,1.0097334995238396,-4357.674694418627,-3820.1944806470065) " id="svg_52">
    <path stroke="null" stroke-width="0" id="svg_116" d="m4954.01139,4061.02159c1.49,-2.56 6.74,-2.27 6.23,1.3c0.09,21.05 0.1,42.12 -0.01,63.17c0.63,4.07 -6.74,3.75 -6.19,-0.17c-0.07,-21.43 0,-42.87 -0.03,-64.3z" fill="#f8d220"/>
   </g>
   <g stroke="null" transform="matrix(1.0097334995238396,0,0,1.0097334995238396,-4357.674694418627,-3820.1944806470065) " id="svg_51">
    <path stroke="null" stroke-width="0" id="svg_117" d="m4973.41139,4065.36159c-3.51,0.52 -4.34,-5.19 -1,-5.95c16.08,-0.13 32.17,-0.15 48.25,0.02c3.01,0.29 2.86,4.28 0.93,5.86c-16.06,0.17 -32.12,0.07 -48.18,0.07z" fill="#f9d22a"/>
   </g>
   <g stroke="null" transform="matrix(1.0097334995238396,0,0,1.0097334995238396,-4357.674694418627,-3820.1944806470065) " id="svg_50">
    <path stroke="null" stroke-width="0" id="svg_118" d="m4773.96139,4071.33159c-0.29,-3.04 3.78,-3.92 5.74,-2.2c0.81,1.62 0.5,3.53 0.61,5.28c-0.07,17.02 0.1,34.03 -0.09,51.04c0.39,3.52 -4.62,3.78 -6.22,1.35c-0.19,-18.49 -0.13,-36.98 -0.04,-55.47z" fill="#fad222"/>
    <path stroke="null" stroke-width="0" id="svg_119" d="m4690.69139,4094.46159c-0.22,-3.35 5.29,-3.49 6.11,-0.6c0.87,6.76 -1.57,14.47 2.81,20.4c7.46,10.6 25.32,10.62 32.79,0.05c4.35,-6.17 2.29,-14.09 2.83,-21.1c1.31,-0.76 2.74,-1.97 4.37,-1.19c2.25,0.68 2.04,3.47 2.11,5.34c-0.04,7.08 0.41,14.94 -4.27,20.82c-9.94,13.64 -32.97,13.67 -42.86,-0.05c-5.43,-6.71 -3.75,-15.71 -3.89,-23.67z" fill="#fad222"/>
   </g>
   <g stroke="null" transform="matrix(1.0097334995238396,0,0,1.0097334995238396,-4357.674694418627,-3820.1944806470065) " id="svg_49">
    <path stroke="null" stroke-width="0" id="svg_120" d="m4566.72139,4078.07159c-0.6,-3.19 -2.43,-6.01 -2.71,-9.27c3.58,4.58 6.36,10.16 7.13,15.93c-0.75,2.22 -1.03,4.56 -0.75,6.9c-2.9,-0.73 -5.91,-0.53 -8.87,-0.44c-22.67,0.16 -45.35,-0.17 -68.03,0.14c-2.07,0.03 -4.33,-0.02 -5.7,-1.81c-0.06,-5.13 1.79,-10.21 4.12,-14.74c0.42,1.2 0.88,2.4 1.34,3.6c1.28,-0.75 2.57,-1.49 3.86,-2.21c5.55,2.32 11.59,0.91 17.39,1.17c17.41,0.49 34.84,-0.43 52.22,0.73z" fill="#8d51c7"/>
   </g>
   <g stroke="null" transform="matrix(1.0097334995238396,0,0,1.0097334995238396,-4357.674694418627,-3820.1944806470065) " id="svg_48">
    <path stroke="null" stroke-width="0" id="svg_121" d="m4439.98139,4076.08159c10.75,-3.16 23.08,5.91 22.42,17.25c1.15,11.72 -11.95,21.23 -22.85,17.59c-8.85,-2.13 -14.76,-11.82 -12.79,-20.67c1.09,-6.76 6.62,-12.51 13.22,-14.17z" fill="#4ada61"/>
   </g>
   <g stroke="null" transform="matrix(1.0097334995238396,0,0,1.0097334995238396,-4357.674694418627,-3820.1944806470065) " id="svg_47">
    <path stroke="null" stroke-width="0" id="svg_122" d="m4570.39139,4091.63159c-0.28,-2.34 0,-4.68 0.75,-6.9c1.77,5.02 1.1,10.43 0.92,15.64c-1.98,2.16 -4.75,3.03 -7.63,2.84c-21.32,0.16 -42.64,0.15 -63.96,0.21c-4.26,-0.16 -8.86,0.47 -12.67,-1.87c-0.5,-4.14 -0.61,-8.3 -0.49,-12.46l0.48,0.43c1.37,1.79 3.63,1.84 5.7,1.81c22.68,-0.31 45.36,0.02 68.03,-0.14c2.96,-0.09 5.97,-0.29 8.87,0.44z" fill="#7846c1"/>
   </g>
   <g stroke="null" transform="matrix(1.0097334995238396,0,0,1.0097334995238396,-4357.674694418627,-3820.1944806470065) " id="svg_46">
    <path stroke="null" stroke-width="0" id="svg_123" d="m4908.35139,4097.35159c-3.68,0.38 -3.73,-6.36 0,-5.97c6.43,-0.09 12.88,-0.1 19.31,0.01c1.92,-0.26 2.48,1.77 3.38,3.01c-0.89,1.32 -1.48,3.32 -3.47,2.94c-6.4,0.11 -12.82,0.11 -19.22,0.01z" fill="#fad221"/>
   </g>
   <g stroke="null" transform="matrix(1.0097334995238396,0,0,1.0097334995238396,-4357.674694418627,-3820.1944806470065) " id="svg_45">
    <path stroke="null" stroke-width="0" id="svg_124" d="m4564.43139,4103.21159c2.88,0.19 5.65,-0.68 7.63,-2.84c-1.18,6.23 -3.42,12.29 -6.99,17.56c-0.52,-0.23 -1.55,-0.7 -2.07,-0.94c-0.86,0.93 -1.68,1.9 -2.61,2.77c-1.15,-0.6 -2.21,-1.35 -3.29,-2.04c-4.89,0.54 -9.74,-0.54 -14.63,-0.36c-11.68,0.28 -23.36,-0.31 -35.04,0.15c-4.4,0.03 -8.78,-0.98 -13.19,-0.5l-0.43,0.02c-2.72,-4.85 -4.93,-10 -6.01,-15.48c3.81,2.34 8.41,1.71 12.67,1.87c21.32,-0.06 42.64,-0.05 63.96,-0.21z" fill="#5f3abb"/>
   </g>
   <g stroke="null" transform="matrix(1.0097334995238396,0,0,1.0097334995238396,-4357.674694418627,-3820.1944806470065) " id="svg_44">
    <path stroke="null" stroke-width="0" id="svg_125" d="m4637.37139,4106.23159c-1.54,-1.81 -1.89,-5.34 1.07,-5.81c5.74,-0.21 11.5,-0.14 17.24,-0.02c3.5,-0.06 3.39,6.01 -0.05,5.93c-6.08,0.12 -12.18,0.19 -18.26,-0.1z" fill="#f8d323"/>
   </g>
   <g stroke="null" transform="matrix(1.0097334995238396,0,0,1.0097334995238396,-4357.674694418627,-3820.1944806470065) " id="svg_43">
    <path stroke="null" stroke-width="0" id="svg_126" d="m4494.24139,4117.01159c4.41,-0.48 8.79,0.53 13.19,0.5c11.68,-0.46 23.36,0.13 35.04,-0.15c4.89,-0.18 9.74,0.9 14.63,0.36c1.08,0.69 2.14,1.44 3.29,2.04c0.93,-0.87 1.75,-1.84 2.61,-2.77c0.52,0.24 1.55,0.71 2.07,0.94c-6.16,9.01 -15.81,15.56 -26.53,17.74c-16.65,3.9 -35.58,-3.89 -44.3,-18.66z" fill="#452db4"/>
   </g>
   <g stroke="null" transform="matrix(1.0097334995238396,0,0,1.0097334995238396,-4357.674694418627,-3820.1944806470065) " id="svg_42">
    <path stroke="null" stroke-width="0" id="svg_127" d="m4556.87139,4146.88159c7.08,-1.44 14.86,0.12 20.48,4.79c6.13,4.84 9.51,12.83 8.71,20.62c-0.7,11.85 -11.73,21.91 -23.58,21.65c-11.22,0.46 -21.95,-8.31 -23.74,-19.39c-2.38,-12.07 6.01,-25.16 18.13,-27.67z" fill="#f7902b"/>
   </g>
  </g>
 </g>
</svg>